<svg width="284" height="284" xmlns="http://www.w3.org/2000/svg" xmlns:undefined="http://sodipodi.sourceforge.net/DTD/sodipodi-0.dtd" xmlns:undefined="http://www.inkscape.org/namespaces/inkscape" version="1.0">
 <g>
  <title>Layer 1</title>
  <g   id="layer1">
   <g id="g6770">
    <path fill="#8a9da5" stroke-width="2" stroke="#000000" stroke-linejoin="round" d="m173.63172,2.36686l-23.6,27.5l-0.08,0c-17.86,-1.1 -35.17,2.2 -50.66,9.3l-30.97,-29.1l8.92,42.5c-12.61,10 -23.02,22.8 -30.18,37.6l-46.47,0.1l37.62,27c-0.12,0.6 -0.29,1.2 -0.39,1.9c-2.38,14.3 -1.75,28.5 1.36,41.8l-38.13,27.4l49.72,1.8c6.69,11.6 15.5,21.9 26.02,30.3l-17.81,51l46.53,-34.7c6.49,2.4 13.3,4.3 20.41,5.5c5.88,1 11.76,1.4 17.54,1.5l21.51,35.4l10.97,-40.5c13.04,-4.2 25.08,-10.8 35.54,-19.5l42.23,14.2l-21.41,-37c8.14,-12.1 13.93,-26.1 16.57,-41.4l36.17,-13.3l-35.01,-14.6c-1.51,-16.8 -6.97,-32.7 -15.56,-46.6l19.95,-31.7l-35.8,11.8c-12.16,-12 -27.26,-21.3 -44.44,-26.4l-0.55,-31.8z"  id="path6661"/>
    <path fill="#445057" d="m243.13172,144.66686c-28.18,59.5 -98.33,79.7 -160.79,55.8c-7.49,-2.9 -14.52,-6.4 -21.11,-10.4c10.67,19.2 27.89,34.9 50,43.4c49.99,19.2 106.12,-5.8 125.29,-55.8c5.23,-13.7 7.56,-19.3 6.61,-33z"  id="path6673"/>
    <path fill="#e4eaed" opacity="0.30943" d="m99.69172,44.26686c-37.77,9.2 -58.27,58.2 -41.72,89.9c-0.6,-42.1 33.11,-81.7 69.68,-92.2c-9.34,-1.2 -18.95,-0.5 -27.96,2.3z" id="path6678"/>
    <path fill="#000000" d="m93.75172,105.16686c1.56,0.6 3.04,1.5 4.23,2.9c3.8,4.2 3.46,10.7 -0.77,14.5c-1.76,1.6 -3.94,2.4 -6.14,2.6c3.44,1.2 7.43,0.6 10.33,-2c4.23,-3.8 4.57,-10.4 0.77,-14.6c-2.21,-2.5 -5.36,-3.6 -8.42,-3.4z" id="path6725"/>
    <g transform="matrix(1.7683 -1.5909 1.5908 1.7683 -2577.4 -478.98)" id="g3490">
     <path fill="#000000" d="m657.18661,945.71025c0.34,0.6 0.53,1.3 0.53,2.1c0,2.3 -1.94,4.3 -4.33,4.3c-1,0 -1.92,-0.4 -2.65,-0.9c0.74,1.3 2.17,2.2 3.81,2.2c2.39,0 4.33,-1.9 4.33,-4.3c0,-1.4 -0.67,-2.6 -1.69,-3.4z" id="path6737"/>
     <path fill="#e4eaed" d="m651.79661,951.41025c-0.28,-0.5 -0.44,-1.1 -0.44,-1.7c0,-2 1.62,-3.7 3.62,-3.7c0.84,0 1.61,0.3 2.22,0.8c-0.62,-1.1 -1.81,-1.9 -3.18,-1.9c-2.01,0 -3.63,1.6 -3.63,3.6c0,1.2 0.56,2.2 1.41,2.9z" id="path3472"/>
    </g>
    <path fill="#e4eaed" d="m93.26172,123.56686c-1.32,-0.4 -2.55,-1.2 -3.55,-2.3c-3.18,-3.6 -2.89,-9 0.65,-12.2c1.47,-1.3 3.3,-2 5.14,-2.2c-2.88,-1 -6.22,-0.4 -8.65,1.7c-3.54,3.2 -3.83,8.7 -0.64,12.2c1.85,2.1 4.48,3 7.05,2.8z" id="path3474"/>
    <path fill="#e4eaed" d="m40.49172,135.36686l-0.03,2.1l210.24,4.1l-0.04,-2.2l-30.41,-2.1l-29.46,-0.4l-8.72,-0.4l-71,-1.7l-70.58,0.6z"  id="path3468"/>
    <g transform="matrix(1.7683 -1.5909 1.5908 1.7683 -2533.4 -478.98)" id="g3494">
     <path fill="#000000" d="m657.18661,945.71025c0.34,0.6 0.53,1.3 0.53,2.1c0,2.3 -1.94,4.3 -4.33,4.3c-1,0 -1.92,-0.4 -2.65,-0.9c0.74,1.3 2.17,2.2 3.81,2.2c2.39,0 4.33,-1.9 4.33,-4.3c0,-1.4 -0.67,-2.6 -1.69,-3.4z" id="path3496"/>
     <path fill="#e4eaed" d="m651.79661,951.41025c-0.28,-0.5 -0.44,-1.1 -0.44,-1.7c0,-2 1.62,-3.7 3.62,-3.7c0.84,0 1.61,0.3 2.22,0.8c-0.62,-1.1 -1.81,-1.9 -3.18,-1.9c-2.01,0 -3.63,1.6 -3.63,3.6c0,1.2 0.56,2.2 1.41,2.9z" id="path3498"/>
    </g>
    <g transform="matrix(1.7911 -0.95198 1.1163 2.1004 -1944.1 -1193.8)" id="g3500">
     <path fill="#000000" d="m560.16622,892.78849c0.34,0.6 0.53,1.3 0.53,2.1c0,2.3 -1.94,4.3 -4.33,4.3c-1,0 -1.92,-0.4 -2.65,-0.9c0.74,1.3 2.17,2.2 3.81,2.2c2.39,0 4.33,-1.9 4.33,-4.3c0,-1.4 -0.67,-2.6 -1.69,-3.4z" id="path3502"/>
     <path fill="#e4eaed" d="m554.77622,898.48849c-0.28,-0.5 -0.44,-1.1 -0.44,-1.7c0,-2 1.62,-3.7 3.62,-3.7c0.84,0 1.61,0.3 2.22,0.8c-0.62,-1.1 -1.81,-1.9 -3.18,-1.9c-2.01,0 -3.63,1.6 -3.63,3.6c0,1.2 0.56,2.2 1.41,2.9z" id="path3504"/>
    </g>
    <g transform="matrix(1.7911 -0.95198 1.1163 2.1004 -1943.8 -1231.6)" id="g3506">
     <path fill="#000000" d="m560.16622,892.78849c0.34,0.6 0.53,1.3 0.53,2.1c0,2.3 -1.94,4.3 -4.33,4.3c-1,0 -1.92,-0.4 -2.65,-0.9c0.74,1.3 2.17,2.2 3.81,2.2c2.39,0 4.33,-1.9 4.33,-4.3c0,-1.4 -0.67,-2.6 -1.69,-3.4z" id="path3508"/>
     <path fill="#e4eaed" d="m554.77622,898.48849c-0.28,-0.5 -0.44,-1.1 -0.44,-1.7c0,-2 1.62,-3.7 3.62,-3.7c0.84,0 1.61,0.3 2.22,0.8c-0.62,-1.1 -1.81,-1.9 -3.18,-1.9c-2.01,0 -3.63,1.6 -3.63,3.6c0,1.2 0.56,2.2 1.41,2.9z" id="path3510"/>
    </g>
    <g transform="matrix(1.7683 -1.5909 1.5908 1.7683 -2527.3 -524.36)" id="g3512">
     <path fill="#000000" d="m657.18661,945.71025c0.34,0.6 0.53,1.3 0.53,2.1c0,2.3 -1.94,4.3 -4.33,4.3c-1,0 -1.92,-0.4 -2.65,-0.9c0.74,1.3 2.17,2.2 3.81,2.2c2.39,0 4.33,-1.9 4.33,-4.3c0,-1.4 -0.67,-2.6 -1.69,-3.4z" id="path3514"/>
     <path fill="#e4eaed" d="m651.79661,951.41025c-0.28,-0.5 -0.44,-1.1 -0.44,-1.7c0,-2 1.62,-3.7 3.62,-3.7c0.84,0 1.61,0.3 2.22,0.8c-0.62,-1.1 -1.81,-1.9 -3.18,-1.9c-2.01,0 -3.63,1.6 -3.63,3.6c0,1.2 0.56,2.2 1.41,2.9z" id="path3516"/>
    </g>
    <g transform="matrix(1.6778 -0.87254 1.1431 2.0785 -1817.7 -1190.2)" id="g3518">
     <path fill="#000000" d="m582.84896,889.82289c0.34,0.6 0.53,1.3 0.53,2.1c0,2.3 -1.94,4.3 -4.33,4.3c-1,0 -1.92,-0.4 -2.65,-0.9c0.74,1.3 2.17,2.2 3.81,2.2c2.39,0 4.33,-1.9 4.33,-4.3c0,-1.4 -0.67,-2.6 -1.69,-3.4z" id="path3520"/>
     <path fill="#e4eaed" d="m577.45896,895.52289c-0.28,-0.5 -0.44,-1.1 -0.44,-1.7c0,-2 1.62,-3.7 3.62,-3.7c0.84,0 1.61,0.3 2.22,0.8c-0.62,-1.1 -1.81,-1.9 -3.18,-1.9c-2.01,0 -3.63,1.6 -3.63,3.6c0,1.2 0.56,2.2 1.41,2.9z" id="path3522"/>
    </g>
    <g transform="matrix(1.6778 -0.87254 1.1431 2.0785 -1817.7 -1190.2)" id="g3524">
     <path fill="#000000" d="m582.84896,889.82289c0.34,0.6 0.53,1.3 0.53,2.1c0,2.3 -1.94,4.3 -4.33,4.3c-1,0 -1.92,-0.4 -2.65,-0.9c0.74,1.3 2.17,2.2 3.81,2.2c2.39,0 4.33,-1.9 4.33,-4.3c0,-1.4 -0.67,-2.6 -1.69,-3.4z" id="path3526"/>
     <path fill="#e4eaed" d="m577.45896,895.52289c-0.28,-0.5 -0.44,-1.1 -0.44,-1.7c0,-2 1.62,-3.7 3.62,-3.7c0.84,0 1.61,0.3 2.22,0.8c-0.62,-1.1 -1.81,-1.9 -3.18,-1.9c-2.01,0 -3.63,1.6 -3.63,3.6c0,1.2 0.56,2.2 1.41,2.9z" id="path3528"/>
    </g>
    <g transform="matrix(1.6778 -0.87254 1.1431 2.0785 -1811.6 -1231.9)" id="g3530">
     <path fill="#000000" d="m582.84896,889.82289c0.34,0.6 0.53,1.3 0.53,2.1c0,2.3 -1.94,4.3 -4.33,4.3c-1,0 -1.92,-0.4 -2.65,-0.9c0.74,1.3 2.17,2.2 3.81,2.2c2.39,0 4.33,-1.9 4.33,-4.3c0,-1.4 -0.67,-2.6 -1.69,-3.4z" id="path3532"/>
     <path fill="#e4eaed" d="m577.45896,895.52289c-0.28,-0.5 -0.44,-1.1 -0.44,-1.7c0,-2 1.62,-3.7 3.62,-3.7c0.84,0 1.61,0.3 2.22,0.8c-0.62,-1.1 -1.81,-1.9 -3.18,-1.9c-2.01,0 -3.63,1.6 -3.63,3.6c0,1.2 0.56,2.2 1.41,2.9z" id="path3534"/>
    </g>
    <g transform="matrix(1.523 -0.13857 0.51676 2.2918 -826.01 -1770.3)" id="g3542">
     <path fill="#000000" d="m393.32256,862.91334c0.34,0.6 0.53,1.3 0.53,2.1c0,2.3 -1.94,4.3 -4.33,4.3c-1,0 -1.92,-0.4 -2.65,-0.9c0.74,1.3 2.17,2.2 3.81,2.2c2.39,0 4.33,-1.9 4.33,-4.3c0,-1.4 -0.67,-2.6 -1.69,-3.4z" id="path3544"/>
     <path fill="#e4eaed" d="m387.93256,868.61334c-0.28,-0.5 -0.44,-1.1 -0.44,-1.7c0,-2 1.62,-3.7 3.62,-3.7c0.84,0 1.61,0.3 2.22,0.8c-0.62,-1.1 -1.81,-1.9 -3.18,-1.9c-2.01,0 -3.63,1.6 -3.63,3.6c0,1.2 0.56,2.2 1.41,2.9z" id="path3546"/>
    </g>
    <g transform="matrix(1.523 -0.13857 0.51676 2.2918 -821.81 -1810.2)" id="g3548">
     <path fill="#000000" d="m393.32256,862.91334c0.34,0.6 0.53,1.3 0.53,2.1c0,2.3 -1.94,4.3 -4.33,4.3c-1,0 -1.92,-0.4 -2.65,-0.9c0.74,1.3 2.17,2.2 3.81,2.2c2.39,0 4.33,-1.9 4.33,-4.3c0,-1.4 -0.67,-2.6 -1.69,-3.4z" id="path3550"/>
     <path fill="#e4eaed" d="m387.93256,868.61334c-0.28,-0.5 -0.44,-1.1 -0.44,-1.7c0,-2 1.62,-3.7 3.62,-3.7c0.84,0 1.61,0.3 2.22,0.8c-0.62,-1.1 -1.81,-1.9 -3.18,-1.9c-2.01,0 -3.63,1.6 -3.63,3.6c0,1.2 0.56,2.2 1.41,2.9z" id="path3552"/>
    </g>
    <path fill="#445057" d="m84.71171,216.99691c-6,8.5 -21.5,49.5 -19.5,46.5s45.5,-34 42.5,-36s-21.5,-10 -23,-10.5z" id="path5580"/>
    <path fill="#445057" d="m144.71171,231.49691c8,22 18,36 18,36l10,-38l-25.5,2" id="path5582"/>
    <path fill="#445057" d="m205.71171,212.99691s44,18 43,16s-23,-36 -23,-36l-20,20z" id="path5584"/>
    <path fill="#e4eaed" d="m149.34671,32.30891s3.889,-1.06 7.425,-1.767c3.535,-0.707 15.56,-24.749 15.56,-24.749l-22.985,26.516z" id="path5586"/>
    <path fill="#e4eaed" d="m216.87171,62.71501s1.42,1.4142 3.54,1.4142s31.82,-12.374 30.41,-12.374c-1.42,0 -33.59,10.96 -33.95,10.96l0,-0.0002z" id="path5588"/>
    <path fill="#e4eaed" d="m6.86471,92.05991c2.829,0 42.073,0.354 42.073,0.354l-2.121,3.535l-39.952,-3.889z" id="path5590"/>
    <path fill="#445057" d="m40.49172,137.46686l-0.03,2.1l210.24,4.1l-0.04,-2.2l-30.41,-2.1l-29.46,-0.4l-8.72,-0.4l-71,-1.6l-70.58,0.5z"  id="path5592"/>
   </g>
  </g>
 </g>
</svg>